<?xml version="1.0" encoding="utf-8"?>
<!-- Generator: Adobe Illustrator 27.5.0, SVG Export Plug-In . SVG Version: 6.00 Build 0)  -->
<svg version="1.1" id="Layer_1" xmlns="http://www.w3.org/2000/svg" xmlns:xlink="http://www.w3.org/1999/xlink" x="0px" y="0px"
	 viewBox="0 0 147.2 225.7" style="enable-background:new 0 0 147.2 225.7;" xml:space="preserve">
<style type="text/css">
	.st0{fill:#FFFFFF;}
</style>
<g>
	<path class="st0" d="M66.9,8.1l72.2,71.4c0.1,0.2,0.3,0.3,0.5,0.5c2.8,2.3,7.2,0.2,7.5-3.4c0-0.1,0-0.2,0-0.2
		c0.2-10.1,0.1-20.3,0.1-30.4c0,0,0,0,0,0c0-10.5,0.2-21,0-31.5c-0.2-8.8-3.4-13.2-11.4-14c-1.1-0.2-2.4-0.3-3.7-0.3
		c-3.2-0.1-6.5-0.1-9.7-0.1c-2.2,0-4.4,0-6.6,0c-5.1,0-10.1,0.1-15.2,0.1c0,0,0,0,0,0c-10.1,0-20.3-0.1-30.4,0.1c-0.1,0-0.2,0-0.2,0
		c-3.7,0.3-5.8,4.7-3.4,7.5C66.6,7.8,66.7,8,66.9,8.1z"/>
	<path class="st0" d="M80.3,217.6L8.1,146.3c-0.1-0.2-0.3-0.3-0.5-0.5c-2.8-2.3-7.2-0.2-7.5,3.4c0,0.1,0,0.2,0,0.2
		C-0.1,159.6,0,169.8,0,179.9c0,0,0,0,0,0c0,10.5-0.2,21,0,31.5c0.2,8.8,3.4,13.2,11.4,14c1.1,0.2,2.4,0.3,3.7,0.3
		c3.2,0.1,6.5,0.1,9.7,0.1c2.2,0,4.4,0,6.6,0c5.1,0,10.1-0.1,15.2-0.1c0,0,0,0,0,0c10.1,0,20.3,0.1,30.4-0.1c0.1,0,0.2,0,0.2,0
		c3.7-0.3,5.8-4.7,3.4-7.5C80.6,217.9,80.5,217.8,80.3,217.6z"/>
	<path class="st0" d="M136.6,126.3L9.8,13.6c-3.6-3.1-6.7-3.2-8.4,1c-0.6,1.6-1.2,4.2-1.2,5.8C-0.1,40,0,59.7,0.2,79.1
		C0.3,85,2.7,91.4,5.7,96.5c3,5.1,7.9,9.1,12.4,13.1l119.5,104.1c2,1.7,4.1,0.2,6-2.3c2.4-3.2,3.6-7.2,3.6-11.2v-52
		c0-1.1-0.1-2.3-0.3-3.4C145.7,137.6,142,131.1,136.6,126.3z"/>
</g>
</svg>
